<svg width="440" height="220" viewBox="0 0 440 220" fill="none" xmlns="http://www.w3.org/2000/svg">
<g clip-path="url(#clip0_1022_2072)">
<path d="M440 0H0V220H440V0Z" fill="#F2F1F0"/>
<path d="M160 50H80V170H160V50Z" fill="#231F20" fill-opacity="0.5"/>
<path d="M80 52.5V55.5H80.5V56V60V60.5H80V63.5H80.5V64V68V68.5H80V71.5H80.5V72V76V76.5H80V79.5H80.5V80V84V84.5H80V87.5H80.5V88V92V92.5H80V95.5H80.5V96V100V100.5H80V103.5H80.5V104V108V108.5H80V111.5H80.5V112V116V116.5H80V119.5H80.5V120V124V124.5H80V127.5H80.5V128V132V132.5H80V135.5H80.5V136V140V140.5H80V143.5H80.5V144V148V148.5H80V151.5H80.5V152V156V156.5H80V159.5H80.5V160V164V164.5H80V167.5H80.5V168V169.5H82H82.5V170H85.5V169.5H86H90H90.5V170H93.5V169.5H94H98H98.5V170H101.5V169.5H102H106H106.5V170H109.5V169.5H110H114H114.5V170H117.5V169.5H118H122H122.5V170H125.5V169.5H126H130H130.5V170H133.5V169.5H134H138H138.5V170H141.5V169.5H142H146H146.5V170H149.5V169.5H150H154H154.5V170H157.5V169.5H158H159.5V168V167.5H160V164.5H159.5V164V160V159.5H160V156.5H159.5V156V152V151.5H160V148.5H159.5V148V144V143.5H160V140.5H159.5V140V136V135.5H160V132.5H159.5V132V128V127.5H160V124.5H159.5V124V120V119.5H160V116.5H159.5V116V112V111.5H160V108.5H159.5V108V104V103.5H160V100.5H159.5V100V96V95.5H160V92.5H159.5V92V88V87.5H160V84.5H159.5V84V80V79.5H160V76.5H159.5V76V72V71.5H160V68.5H159.5V68V64V63.5H160V60.5H159.5V60V56V55.5H160V52.5H159.5V52V50.5H158H157.5V50H154.5V50.5H154H150H149.5V50H146.5V50.5H146H142H141.5V50H138.5V50.5H138H134H133.5V50H130.5V50.5H130H126H125.5V50H122.5V50.5H122H118H117.5V50H114.5V50.5H114H110H109.5V50H106.5V50.5H106H102H101.5V50H98.5V50.5H98H94H93.5V50H90.5V50.5H90H86H85.5V50H82.5V50.5H82H80.5V52V52.5H80Z" stroke="#231F20" stroke-opacity="0.5" stroke-linecap="square" stroke-linejoin="bevel" stroke-dasharray="4 4"/>
<path d="M180 52.5V55.5H180.5V56V60V60.5H180V63.5H180.5V64V68V68.5H180V71.5H180.5V72V76V76.5H180V79.5H180.5V80V84V84.5H180V87.5H180.5V88V92V92.5H180V95.5H180.5V96V100V100.5H180V103.5H180.5V104V108V108.5H180V111.5H180.5V112V116V116.5H180V119.5H180.5V120V124V124.5H180V127.5H180.5V128V132V132.5H180V135.5H180.5V136V140V140.5H180V143.5H180.5V144V148V148.5H180V151.5H180.5V152V156V156.5H180V159.5H180.5V160V164V164.5H180V167.5H180.5V168V169.5H182H182.5V170H185.5V169.5H186H190H190.5V170H193.5V169.5H194H198H198.5V170H201.5V169.5H202H206H206.5V170H209.5V169.5H210H214H214.5V170H217.5V169.5H218H222H222.5V170H225.5V169.5H226H230H230.5V170H233.5V169.5H234H238H238.5V170H241.5V169.5H242H246H246.5V170H249.5V169.5H250H254H254.5V170H257.5V169.5H258H259.5V168V167.5H260V164.5H259.5V164V160V159.5H260V156.5H259.5V156V152V151.5H260V148.5H259.5V148V144V143.5H260V140.5H259.5V140V136V135.5H260V132.5H259.5V132V128V127.5H260V124.5H259.5V124V120V119.5H260V116.5H259.5V116V112V111.5H260V108.5H259.5V108V104V103.5H260V100.5H259.5V100V96V95.5H260V92.5H259.5V92V88V87.5H260V84.5H259.5V84V80V79.5H260V76.5H259.5V76V72V71.5H260V68.5H259.5V68V64V63.5H260V60.5H259.5V60V56V55.5H260V52.5H259.5V52V50.5H258H257.5V50H254.5V50.5H254H250H249.5V50H246.5V50.5H246H242H241.5V50H238.5V50.5H238H234H233.5V50H230.5V50.5H230H226H225.5V50H222.5V50.5H222H218H217.5V50H214.5V50.5H214H210H209.5V50H206.5V50.5H206H202H201.5V50H198.5V50.5H198H194H193.5V50H190.5V50.5H190H186H185.5V50H182.5V50.5H182H180.5V52V52.5H180Z" stroke="#231F20" stroke-opacity="0.5" stroke-linecap="square" stroke-linejoin="bevel" stroke-dasharray="4 4"/>
<path d="M280 52.5V55.5H280.5V56V60V60.5H280V63.5H280.5V64V68V68.5H280V71.5H280.5V72V76V76.5H280V79.5H280.5V80V84V84.5H280V87.5H280.5V88V92V92.5H280V95.5H280.5V96V100V100.5H280V103.5H280.5V104V108V108.5H280V111.5H280.5V112V116V116.5H280V119.5H280.5V120V124V124.5H280V127.5H280.5V128V132V132.5H280V135.5H280.5V136V140V140.5H280V143.5H280.5V144V148V148.5H280V151.5H280.5V152V156V156.5H280V159.5H280.5V160V164V164.5H280V167.5H280.5V168V169.5H282H282.5V170H285.5V169.5H286H290H290.5V170H293.5V169.5H294H298H298.5V170H301.5V169.5H302H306H306.5V170H309.5V169.5H310H314H314.5V170H317.5V169.5H318H322H322.5V170H325.5V169.5H326H330H330.5V170H333.5V169.5H334H338H338.5V170H341.5V169.5H342H346H346.5V170H349.5V169.5H350H354H354.5V170H357.5V169.5H358H359.5V168V167.5H360V164.5H359.5V164V160V159.5H360V156.5H359.5V156V152V151.5H360V148.5H359.5V148V144V143.5H360V140.5H359.5V140V136V135.5H360V132.5H359.5V132V128V127.5H360V124.5H359.5V124V120V119.5H360V116.5H359.5V116V112V111.5H360V108.5H359.5V108V104V103.5H360V100.5H359.5V100V96V95.5H360V92.5H359.5V92V88V87.5H360V84.5H359.5V84V80V79.5H360V76.5H359.5V76V72V71.5H360V68.5H359.5V68V64V63.5H360V60.5H359.5V60V56V55.5H360V52.5H359.5V52V50.5H358H357.5V50H354.5V50.5H354H350H349.5V50H346.5V50.5H346H342H341.5V50H338.5V50.5H338H334H333.5V50H330.5V50.5H330H326H325.5V50H322.5V50.5H322H318H317.5V50H314.5V50.5H314H310H309.5V50H306.5V50.5H306H302H301.5V50H298.5V50.5H298H294H293.5V50H290.5V50.5H290H286H285.5V50H282.5V50.5H282H280.5V52V52.5H280Z" stroke="#231F20" stroke-opacity="0.5" stroke-linecap="square" stroke-linejoin="bevel" stroke-dasharray="4 4"/>
</g>
<defs>
<clipPath id="clip0_1022_2072">
<rect width="440" height="220" fill="white"/>
</clipPath>
</defs>
</svg>
