<svg width="440" height="220" viewBox="0 0 440 220" fill="none" xmlns="http://www.w3.org/2000/svg">
<g clip-path="url(#clip0_1020_2064)">
<path d="M440 0H0V220H440V0Z" fill="#F2F1F0"/>
<path d="M110 70C110 86.5685 123.431 100 140 100C156.569 100 170 86.5685 170 70C170 53.4315 156.569 40 140 40C123.431 40 110 53.4315 110 70Z" fill="#231F20" fill-opacity="0.5"/>
<path d="M190 70C190 86.5685 203.431 100 220 100C236.569 100 250 86.5685 250 70C250 53.4315 236.569 40 220 40C203.431 40 190 53.4315 190 70Z" fill="#231F20" fill-opacity="0.5"/>
<path d="M270 70C270 86.5685 283.431 100 300 100C316.569 100 330 86.5685 330 70C330 53.4315 316.569 40 300 40C283.431 40 270 53.4315 270 70Z" fill="#231F20" fill-opacity="0.5"/>
<path d="M110 150C110 166.569 123.431 180 140 180C156.569 180 170 166.569 170 150C170 133.431 156.569 120 140 120C123.431 120 110 133.431 110 150Z" fill="#231F20" fill-opacity="0.5"/>
<path d="M190 150C190 166.569 203.431 180 220 180C236.569 180 250 166.569 250 150C250 133.431 236.569 120 220 120C203.431 120 190 133.431 190 150Z" fill="#231F20" fill-opacity="0.5"/>
</g>
<defs>
<clipPath id="clip0_1020_2064">
<rect width="440" height="220" fill="white"/>
</clipPath>
</defs>
</svg>
